<?xml version="1.0" encoding="UTF-8" standalone="no"?>
<!DOCTYPE svg PUBLIC "-//W3C//DTD SVG 1.1//EN" "http://www.w3.org/Graphics/SVG/1.1/DTD/svg11.dtd">
<svg version="1.1" xmlns="http://www.w3.org/2000/svg" xmlns:xlink="http://www.w3.org/1999/xlink" preserveAspectRatio="xMidYMid meet" viewBox="0 0 640 640" width="640" height="640"><defs><path d="M414.56 168.22C414.56 220.41 372.19 262.78 320 262.78C267.81 262.78 225.44 220.41 225.44 168.22C225.44 116.04 267.81 73.67 320 73.67C372.19 73.67 414.56 116.04 414.56 168.22Z" id="a6pFt9Tjr"></path><path d="M414.56 471.78C414.56 523.96 372.19 566.33 320 566.33C267.81 566.33 225.44 523.96 225.44 471.78C225.44 419.59 267.81 377.22 320 377.22C372.19 377.22 414.56 419.59 414.56 471.78Z" id="bZyjqPgI1"></path><path d="M213.37 47.4L259.64 93.67" id="ajIVxhp0m"></path><path d="M346.15 19.23L330.06 73.67" id="h2YDNnxbXj"></path><path d="M454.79 70.53L396.45 111.78" id="a5ffjMKfob"></path><path d="M189.23 574.5L245.56 532.25" id="giFqLHtQm"></path><path d="M414.56 592.6L374.32 544.32" id="f2ODum2sUj"></path><path d="M313.96 377.22L313.96 262.78" id="c1rRACxuI5"></path></defs><g><g><g><use xlink:href="#a6pFt9Tjr" opacity="1" fill="#d5e0e2" fill-opacity="1"></use></g><g><use xlink:href="#bZyjqPgI1" opacity="1" fill="#d5e0e2" fill-opacity="1"></use></g><g><g><use xlink:href="#ajIVxhp0m" opacity="1" fill-opacity="0" stroke="#000000" stroke-width="1" stroke-opacity="1"></use></g></g><g><g><use xlink:href="#h2YDNnxbXj" opacity="1" fill-opacity="0" stroke="#000000" stroke-width="1" stroke-opacity="1"></use></g></g><g><g><use xlink:href="#a5ffjMKfob" opacity="1" fill-opacity="0" stroke="#000000" stroke-width="1" stroke-opacity="1"></use></g></g><g><g><use xlink:href="#giFqLHtQm" opacity="1" fill-opacity="0" stroke="#000000" stroke-width="1" stroke-opacity="1"></use></g></g><g><g><use xlink:href="#f2ODum2sUj" opacity="1" fill-opacity="0" stroke="#000000" stroke-width="1" stroke-opacity="1"></use></g></g><g><g><use xlink:href="#c1rRACxuI5" opacity="1" fill-opacity="0" stroke="#000000" stroke-width="1" stroke-opacity="1"></use></g></g></g></g></svg>