<?xml version="1.0" encoding="UTF-8" standalone="no"?>
<!DOCTYPE svg PUBLIC "-//W3C//DTD SVG 1.1//EN" "http://www.w3.org/Graphics/SVG/1.1/DTD/svg11.dtd">
<svg version="1.1" xmlns="http://www.w3.org/2000/svg" xmlns:xlink="http://www.w3.org/1999/xlink" preserveAspectRatio="xMidYMid meet" viewBox="0 0 640 640" width="640" height="640"><defs><path d="M407.51 151.12C407.51 199.42 368.3 238.64 320 238.64C271.7 238.64 232.49 199.42 232.49 151.12C232.49 102.82 271.7 63.61 320 63.61C368.3 63.61 407.51 102.82 407.51 151.12Z" id="d3DnKQ89sG"></path><path d="M407.51 488.88C407.51 537.18 368.3 576.39 320 576.39C271.7 576.39 232.49 537.18 232.49 488.88C232.49 440.58 271.7 401.36 320 401.36C368.3 401.36 407.51 440.58 407.51 488.88Z" id="bWRq1V1ov"></path><path d="M275.74 223.43C223.43 281.1 217.4 348.84 257.63 426.63" id="e1WUiE27EI"></path><path d="M378.34 420.59C427.97 342.8 427.97 274.4 378.34 215.38" id="a1Z0bxB3k5"></path><path d="M320 401.36L320 238.64" id="aRGWUhhID"></path><path d="M275.74 74.56L253.57 32.31" id="cGq6IorwB"></path><path d="M430.65 32.31L378.34 84.62" id="g2iYXGZ9Ps"></path><path d="M231.39 603.67L264.65 555.38" id="ceziEnc5l"></path><path d="M396.95 597.63L370.3 555.38" id="aP6VlCs2x"></path><path d="M320 613.73L320 576.39" id="a3OlkKoBqu"></path></defs><g><g><g><use xlink:href="#d3DnKQ89sG" opacity="1" fill="#7c32b8" fill-opacity="1"></use></g><g><use xlink:href="#bWRq1V1ov" opacity="1" fill="#7c32b8" fill-opacity="1"></use></g><g><g><use xlink:href="#e1WUiE27EI" opacity="1" fill-opacity="0" stroke="#000000" stroke-width="1" stroke-opacity="1"></use></g></g><g><g><use xlink:href="#a1Z0bxB3k5" opacity="1" fill-opacity="0" stroke="#000000" stroke-width="1" stroke-opacity="1"></use></g></g><g><g><use xlink:href="#aRGWUhhID" opacity="1" fill-opacity="0" stroke="#000000" stroke-width="1" stroke-opacity="1"></use></g></g><g><g><use xlink:href="#cGq6IorwB" opacity="1" fill-opacity="0" stroke="#000000" stroke-width="1" stroke-opacity="1"></use></g></g><g><g><use xlink:href="#g2iYXGZ9Ps" opacity="1" fill-opacity="0" stroke="#000000" stroke-width="1" stroke-opacity="1"></use></g></g><g><g><use xlink:href="#ceziEnc5l" opacity="1" fill-opacity="0" stroke="#000000" stroke-width="1" stroke-opacity="1"></use></g></g><g><g><use xlink:href="#aP6VlCs2x" opacity="1" fill-opacity="0" stroke="#000000" stroke-width="1" stroke-opacity="1"></use></g></g><g><g><use xlink:href="#a3OlkKoBqu" opacity="1" fill-opacity="0" stroke="#000000" stroke-width="1" stroke-opacity="1"></use></g></g></g></g></svg>