<?xml version="1.0" encoding="UTF-8" standalone="no"?>
<!DOCTYPE svg PUBLIC "-//W3C//DTD SVG 1.1//EN" "http://www.w3.org/Graphics/SVG/1.1/DTD/svg11.dtd">
<svg version="1.1" xmlns="http://www.w3.org/2000/svg" xmlns:xlink="http://www.w3.org/1999/xlink" preserveAspectRatio="xMidYMid meet" viewBox="0 0 640 640" width="640" height="640"><defs><path d="M407.51 151.12C407.51 199.42 368.3 238.64 320 238.64C271.7 238.64 232.49 199.42 232.49 151.12C232.49 102.82 271.7 63.61 320 63.61C368.3 63.61 407.51 102.82 407.51 151.12Z" id="a4KS73qfJ1"></path><path d="M378.34 420.59C427.97 342.8 427.97 274.4 378.34 215.38" id="a1Z0bxB3k5"></path><path d="M275.74 74.56L253.57 32.31" id="cGq6IorwB"></path><path d="M430.65 32.31L378.34 84.62" id="g2iYXGZ9Ps"></path><path d="M231.39 603.67L264.65 555.38" id="ceziEnc5l"></path><path d="M396.95 597.63L370.3 555.38" id="aP6VlCs2x"></path><path d="M320 63.61L320 26.27" id="bi6LmEpVh"></path><path d="M253.57 434.67C328.65 344.81 348.78 279.47 313.96 238.64" id="c3ZFMfYghz"></path><path d="M297.87 330.06L264.65 215.38" id="fa0VQX4qJ"></path><path d="M320 401.36C318.99 397.52 316.98 389.85 313.96 378.34" id="b1IyTQwe7c"></path><path d="M407.51 484.85C407.51 533.15 368.3 572.37 320 572.37C271.7 572.37 232.49 533.15 232.49 484.85C232.49 436.55 271.7 397.34 320 397.34C368.3 397.34 407.51 436.55 407.51 484.85Z" id="b7fUSPphu"></path></defs><g><g><g><use xlink:href="#a4KS73qfJ1" opacity="1" fill="#868686" fill-opacity="1"></use></g><g><g><use xlink:href="#a1Z0bxB3k5" opacity="1" fill-opacity="0" stroke="#000000" stroke-width="1" stroke-opacity="1"></use></g></g><g><g><use xlink:href="#cGq6IorwB" opacity="1" fill-opacity="0" stroke="#000000" stroke-width="1" stroke-opacity="1"></use></g></g><g><g><use xlink:href="#g2iYXGZ9Ps" opacity="1" fill-opacity="0" stroke="#000000" stroke-width="1" stroke-opacity="1"></use></g></g><g><g><use xlink:href="#ceziEnc5l" opacity="1" fill-opacity="0" stroke="#000000" stroke-width="1" stroke-opacity="1"></use></g></g><g><g><use xlink:href="#aP6VlCs2x" opacity="1" fill-opacity="0" stroke="#000000" stroke-width="1" stroke-opacity="1"></use></g></g><g><g><use xlink:href="#bi6LmEpVh" opacity="1" fill-opacity="0" stroke="#000000" stroke-width="1" stroke-opacity="1"></use></g></g><g><g><use xlink:href="#c3ZFMfYghz" opacity="1" fill-opacity="0" stroke="#000000" stroke-width="1" stroke-opacity="1"></use></g></g><g><g><use xlink:href="#fa0VQX4qJ" opacity="1" fill-opacity="0" stroke="#000000" stroke-width="1" stroke-opacity="1"></use></g></g><g><g><use xlink:href="#b1IyTQwe7c" opacity="1" fill-opacity="0" stroke="#000000" stroke-width="1" stroke-opacity="1"></use></g></g><g><use xlink:href="#b7fUSPphu" opacity="1" fill="#868686" fill-opacity="1"></use></g></g></g></svg>